<svg width="25" height="24" viewBox="0 0 25 24" fill="none" xmlns="http://www.w3.org/2000/svg">
<path d="M3.02994 14.77C2.81694 16.164 3.76794 17.131 4.93194 17.613C9.39494 19.463 15.6049 19.463 20.0679 17.613C21.2319 17.131 22.1829 16.163 21.9699 14.77C21.8399 13.913 21.1929 13.2 20.7139 12.503C20.0869 11.579 20.0249 10.572 20.0239 9.5C20.0249 5.358 16.6569 2 12.4999 2C8.34294 2 4.97494 5.358 4.97494 9.5C4.97494 10.572 4.91294 11.58 4.28494 12.503C3.80694 13.2 3.16094 13.913 3.02994 14.77Z" stroke="black" stroke-width="1.5" stroke-linecap="round" stroke-linejoin="round"/>
<path d="M8.49988 19C8.95788 20.725 10.5759 22 12.4999 22C14.4249 22 16.0409 20.725 16.4999 19" stroke="black" stroke-width="1.5" stroke-linecap="round" stroke-linejoin="round"/>
</svg>
