<svg width="24" height="24" viewBox="0 0 24 24" fill="none" xmlns="http://www.w3.org/2000/svg">
<path d="M21.792 11.567C21.792 16.85 17.314 21.133 11.792 21.133C11.1407 21.1337 10.4957 21.0743 9.85699 20.955C9.39799 20.868 9.16899 20.825 9.00899 20.85C8.84899 20.874 8.62099 20.995 8.16699 21.236C6.87334 21.925 5.3848 22.1565 3.94299 21.893C4.49374 21.2122 4.8672 20.4054 5.02999 19.545C5.12999 19.015 4.88199 18.5 4.50999 18.123C2.82599 16.411 1.79199 14.105 1.79199 11.567C1.79199 6.284 6.26999 2 11.792 2C17.314 2 21.792 6.284 21.792 11.567Z" stroke="black" stroke-width="1.5" stroke-linecap="round" stroke-linejoin="round"/>
<path d="M11.788 12H11.796M15.783 12H15.792M7.79199 12H7.80099" stroke="black" stroke-width="2" stroke-linecap="round" stroke-linejoin="round"/>
</svg>
