<svg width="24" height="24" viewBox="0 0 24 24" fill="none" xmlns="http://www.w3.org/2000/svg">
<path d="M6.28597 15.8537C4.87097 16.6957 1.16097 18.4157 3.42097 20.5687C4.52397 21.6197 5.75297 22.3717 7.29797 22.3717H16.116C17.662 22.3717 18.891 21.6197 19.994 20.5687C22.254 18.4157 18.544 16.6957 17.129 15.8537C15.4868 14.8836 13.6143 14.3718 11.707 14.3718C9.79961 14.3718 7.92818 14.8836 6.28597 15.8537ZM16.208 6.8717C16.208 8.06518 15.7339 9.20977 14.8899 10.0537C14.046 10.8976 12.9014 11.3717 11.708 11.3717C10.5145 11.3717 9.3699 10.8976 8.52599 10.0537C7.68208 9.20977 7.20797 8.06518 7.20797 6.8717C7.20797 5.67823 7.68208 4.53364 8.52599 3.68972C9.3699 2.84581 10.5145 2.3717 11.708 2.3717C12.9014 2.3717 14.046 2.84581 14.8899 3.68972C15.7339 4.53364 16.208 5.67823 16.208 6.8717Z" stroke="black" stroke-width="1.5" stroke-linecap="round" stroke-linejoin="round"/>
</svg>
