<svg width="24" height="24" viewBox="0 0 24 24" fill="none" xmlns="http://www.w3.org/2000/svg">
<path fill-rule="evenodd" clip-rule="evenodd" d="M4.10571 4.27404C5.93419 2.44556 8.41414 1.41833 11 1.41833C13.5859 1.41833 16.0658 2.44556 17.8943 4.27404C19.7228 6.10252 20.75 8.58247 20.75 11.1683C20.75 13.503 19.9126 15.7514 18.4042 17.5119L22.5303 21.638C22.8232 21.9309 22.8232 22.4058 22.5303 22.6987C22.2374 22.9916 21.7626 22.9916 21.4697 22.6987L17.3435 18.5725C15.5831 20.081 13.3347 20.9183 11 20.9183C8.41414 20.9183 5.93419 19.8911 4.10571 18.0626C2.27723 16.2341 1.25 13.7542 1.25 11.1683C1.25 8.58247 2.27723 6.10252 4.10571 4.27404ZM11 2.91833C8.81196 2.91833 6.71354 3.78753 5.16637 5.3347C3.61919 6.88188 2.75 8.9803 2.75 11.1683C2.75 13.3564 3.61919 15.4548 5.16637 17.002C6.71354 18.5491 8.81196 19.4183 11 19.4183C13.188 19.4183 15.2865 18.5491 16.8336 17.002C18.3808 15.4548 19.25 13.3564 19.25 11.1683C19.25 8.9803 18.3808 6.88188 16.8336 5.3347C15.2865 3.78753 13.188 2.91833 11 2.91833Z" fill="black"/>
</svg>
