<svg width="188" height="196" viewBox="0 0 188 196" fill="none" xmlns="http://www.w3.org/2000/svg"><path d="M100.204 67.4392C104.339 66.9542 108.477 66.4662 112.612 65.9822C112.736 65.9672 113.026 65.9412 113.402 65.9822C113.402 65.9822 114.559 66.1082 115.684 67.0422C119.57 70.2712 121.317 75.8882 121.317 75.8882C121.317 75.8882 123.417 82.6312 120.991 90.5132C120.756 91.2802 120.26 91.7592 120.26 91.7592C119.834 92.2002 119.356 92.4202 119.03 92.5352C114.51 93.6692 109.99 94.8032 105.467 95.9372C103.71 86.4382 101.957 76.9372 100.201 67.4392H100.204Z" fill="url(#paint3_linear_396_3120)"></path><path d="M47.3323 71.7545C64.3283 69.7485 81.3253 67.7415 98.3213 65.7385C98.8853 65.6675 99.7423 65.6435 100.673 65.9785C100.673 65.9785 101.446 66.2585 102.139 66.8255C107.143 70.9115 109.402 78.1065 109.402 78.1065C109.402 78.1065 112.398 87.6435 109.185 95.9225C108.618 97.3825 107.596 98.0755 107.596 98.0755C107.276 98.2935 106.979 98.4165 106.8 98.4815C89.1463 102.4 71.4893 106.319 53.8354 110.238C51.6673 97.4085 49.4973 84.5815 47.3293 71.7515L47.3323 71.7545Z" fill="url(#paint4_linear_396_3120)"></path><path d="M28.6536 72.4086C34.4042 71.6596 40.1519 70.9096 45.9025 70.1576C46.4605 70.1316 47.3125 70.1546 48.2785 70.4546C48.2785 70.4546 49.4945 70.8306 50.6105 71.7176C56.5515 76.4306 59.3805 85.1116 59.3805 85.1116C59.3805 85.1116 62.9045 95.9296 59.1655 107.44C58.7925 108.592 58.0735 109.353 58.0735 109.353C57.4325 110.032 56.7045 110.381 56.2115 110.563C49.2655 112.194 42.3164 113.825 35.3705 115.458C33.1325 101.109 30.8946 86.7596 28.6566 72.4116L28.6536 72.4086Z" fill="url(#paint5_linear_396_3120)"></path><path d="M35.3704 115.452C38.6363 114.68 41.9052 113.91 45.1714 113.137C45.5234 112.72 46.0314 112.085 46.5754 111.272C49.6004 106.73 50.0174 102.12 50.2024 99.7555C50.3634 97.6905 51.3684 81.9785 40.6687 73.9255C38.9506 72.6325 37.3499 71.8515 36.3191 71.4075C33.7639 71.7395 31.2117 72.0745 28.6565 72.4065C30.8945 86.7555 33.1324 101.103 35.3704 115.452Z" fill="url(#paint6_linear_396_3120)"></path><path d="M34.9235 115.794C42.2285 114.666 46.6504 104.038 44.8004 92.0563C42.9507 80.0743 35.5291 71.2763 28.2241 72.4043C20.919 73.5333 16.4969 84.1613 18.3469 96.1433C20.1968 108.125 27.6185 116.923 34.9235 115.794Z" fill="url(#paint7_linear_396_3120)"></path><path d="M37.312 113.209C31.1444 113.946 25.1089 105.858 23.8313 95.1465C22.5537 84.4355 26.5157 75.1545 32.6833 74.4195C33.7025 74.2995 34.7157 74.4195 35.7084 74.7545C33.3236 72.9245 30.695 72.0485 28.0811 72.4545C20.7769 73.5825 16.3538 84.2085 18.2041 96.1925C20.0544 108.173 27.4731 116.972 34.7803 115.844C37.4618 115.43 39.7526 113.732 41.4913 111.161C40.2695 112.307 38.8627 113.029 37.3179 113.214L37.312 113.209Z" fill="url(#paint8_linear_396_3120)"></path><mask id="mask0_396_3120" maskUnits="userSpaceOnUse" x="47" y="65" width="64" height="46" style="mask-type: luminance;"><path d="M47.3323 71.7523C64.3283 69.7463 81.3253 67.7393 98.3213 65.7363C98.8853 65.6653 99.7423 65.6423 100.673 65.9763C100.673 65.9763 101.446 66.2563 102.139 66.8233C107.143 70.9093 109.402 78.1043 109.402 78.1043C109.402 78.1043 112.398 87.6413 109.185 95.9203C108.618 97.3803 107.596 98.0733 107.596 98.0733C107.276 98.2913 106.979 98.4143 106.8 98.4793C89.1463 102.398 71.4893 106.317 53.8354 110.236C51.6673 97.4063 49.4973 84.5793 47.3293 71.7493L47.3323 71.7523Z" fill="white"></path></mask><g mask="url(#mask0_396_3120)"><path d="M92.0123 65.5632C94.2243 67.6202 99.5513 73.1232 101.798 82.1302C104.171 91.6462 101.687 99.3872 100.638 102.181" stroke="url(#paint9_linear_396_3120)" stroke-width="0.477554" stroke-miterlimit="10"></path></g><path d="M32.4041 86.9074C31.6434 86.5524 30.7947 86.2084 29.8578 85.9024C29.2792 85.7144 28.727 85.5624 28.1954 85.4324C28.0838 85.7764 27.9781 86.1294 27.8782 86.4904C26.0691 93.0474 27.1293 98.6534 27.8724 101.444C28.1631 101.564 28.5626 101.694 29.0501 101.755C29.6111 101.826 30.0898 101.782 30.4246 101.723C30.2337 98.8674 30.2777 94.7024 31.5083 89.8894C31.7785 88.8374 32.081 87.8444 32.4041 86.9074Z" fill="#ECFAF8"></path><path d="M30.7096 83.5297C31.6553 83.8587 32.5158 84.2227 33.2941 84.5927C34.0548 82.7887 34.8654 81.2617 35.5967 80.0277C35.3001 79.6897 34.651 79.0427 33.6084 78.6607C32.7655 78.3527 32.0224 78.3497 31.5965 78.3817C30.7889 79.5927 29.8843 81.1437 29.0854 83.0237C29.6053 83.1677 30.1457 83.3327 30.7066 83.5297H30.7096Z" fill="#ECFAF8"></path><mask id="mask1_396_3120" maskUnits="userSpaceOnUse" x="97" y="80" width="24" height="20" style="mask-type: luminance;"><path d="M97.8103 82.7865C102.077 82.2135 106.344 81.6405 110.612 81.0645C111.525 80.9095 113.117 80.7795 114.821 81.4615C118.374 82.8835 119.505 86.6705 119.849 87.8275C120.935 91.4705 119.84 94.5935 119.399 95.6785C114.048 96.8125 108.694 97.9495 103.343 99.0835C101.498 93.6505 99.6543 88.2185 97.8103 82.7835V82.7865Z" fill="white"></path></mask><g mask="url(#mask1_396_3120)"><path d="M99.0583 84.0826C106.785 82.9046 114.515 81.7266 122.242 80.5486" stroke="url(#paint10_linear_396_3120)" stroke-width="1.52817" stroke-miterlimit="10"></path><path d="M101.795 87.5536C109.513 86.3086 117.232 85.0656 124.947 83.8196" stroke="url(#paint11_linear_396_3120)" stroke-width="1.52817" stroke-miterlimit="10"></path><path d="M104.544 91.5836C112.242 90.2206 119.94 88.8606 127.637 87.4976" stroke="url(#paint12_linear_396_3120)" stroke-width="1.52817" stroke-miterlimit="10"></path><path d="M107.167 95.2936C114.853 93.8656 122.539 92.4346 130.225 91.0076" stroke="url(#paint13_linear_396_3120)" stroke-width="1.52817" stroke-miterlimit="10"></path></g><path d="M91.6104 126.094C83.4544 115.967 75.2984 105.84 67.1424 95.7147C67.6094 93.9087 68.0614 91.4087 68.0204 88.4207C67.9764 85.3327 67.4214 82.7737 66.8784 80.9517C74.8874 79.8447 82.8994 78.7337 90.9084 77.6267C96.7384 80.7137 102.568 83.8017 108.398 86.8897C114.404 93.7317 120.413 100.572 126.419 107.414C117.99 109.859 109.561 112.303 101.129 114.747C100.867 114.741 95.3934 114.73 92.6764 119.198C90.8374 122.224 91.4454 125.353 91.6104 126.097V126.094Z" fill="url(#paint14_linear_396_3120)"></path><path d="M101.272 114.696C109.702 112.251 118.131 109.807 126.563 107.363C120.571 100.538 114.58 93.7164 108.588 86.8914C100.488 88.4164 92.3883 89.9414 84.2883 91.4694C88.5673 99.4954 92.8493 107.524 97.1283 115.551C99.2253 114.69 101.123 114.693 101.275 114.696H101.272Z" fill="url(#paint15_linear_396_3120)"></path><path d="M101.599 114.604C96.8115 106.654 92.0245 98.7044 87.2375 90.7514C80.4505 87.4844 73.6625 84.2174 66.8755 80.9504C67.3865 82.8484 67.8825 85.3984 67.9355 88.4304C67.9885 91.4384 67.5915 93.9864 67.1515 95.8894C75.3515 105.943 83.5515 115.996 91.7515 126.05C91.5865 125.307 90.9765 122.178 92.8175 119.152C95.5345 114.683 101.008 114.695 101.27 114.701C101.378 114.668 101.487 114.636 101.596 114.607L101.599 114.604Z" fill="#0F53B7"></path><path d="M74.6783 90.8823C75.9683 90.5303 77.2163 90.2303 78.4113 89.9773C78.6993 89.9833 79.1103 90.0213 79.5743 90.1743C81.2783 90.7293 82.0793 92.2753 82.3033 92.7073C82.4233 92.9393 83.4663 95.0363 82.5733 97.3963C82.2383 98.2803 81.7453 98.8973 81.4163 99.2523C79.9033 99.5233 78.7113 99.8663 77.8653 100.007C76.9163 100.166 75.9653 100.325 75.0163 100.483C74.5293 100.519 73.7153 100.501 72.8843 100.084C70.6643 98.9703 70.4813 96.0823 70.4523 95.5833C70.4143 94.9783 70.3023 93.2123 71.4593 92.0933C71.6683 91.8933 71.8713 91.7553 72.0233 91.6673C72.8753 91.3963 73.7623 91.1323 74.6843 90.8793L74.6783 90.8823Z" fill="url(#paint16_linear_396_3120)"></path><path d="M75.3513 90.7034C75.1633 90.7504 74.6583 90.8734 74.5203 90.9064C74.5203 90.9064 72.9693 91.2884 72.0183 91.6674C72.0183 91.6674 72.2503 91.5814 72.5113 91.5434C73.4273 91.4114 74.2503 92.0814 74.5933 92.3604C76.3293 93.7764 76.9633 96.7374 76.4053 98.7094C76.2793 99.1524 76.0713 99.8524 75.4223 100.233C75.0103 100.474 74.5873 100.492 74.3263 100.477C74.4903 100.486 74.7283 100.495 75.0163 100.48C75.6243 100.451 76.0623 100.342 76.3583 100.281C76.7523 100.198 77.3283 100.084 78.0593 99.9634C78.1683 99.7134 78.3173 99.3324 78.4473 98.8564C78.6263 98.2034 79.1933 95.7944 78.0383 93.3564C77.8153 92.8834 77.4633 92.1634 76.6993 91.5114C76.1943 91.0794 75.6923 90.8354 75.3513 90.7004V90.7034Z" fill="url(#paint17_linear_396_3120)"></path><path d="M139.55 91.1896C144.017 90.3076 148.484 89.4236 152.951 88.5426C153.084 88.5156 153.401 88.4596 153.812 88.4716C153.812 88.4716 155.084 88.5096 156.388 89.4326C160.899 92.6196 163.284 98.5926 163.284 98.5926C163.284 98.5926 166.147 105.765 164.179 114.561C163.989 115.419 163.489 115.98 163.489 115.98C163.063 116.497 162.558 116.779 162.215 116.932C157.383 118.553 152.555 120.175 147.724 121.797C144.998 111.594 142.276 101.39 139.55 91.1866V91.1896Z" fill="url(#paint18_linear_396_3120)"></path><path d="M82.2913 100.411C100.644 96.7707 118.997 93.1337 137.35 89.4927C137.958 89.3697 138.889 89.2697 139.935 89.5547C139.935 89.5547 140.801 89.7927 141.606 90.3507C147.409 94.3757 150.487 102.027 150.487 102.027C150.487 102.027 154.567 112.165 151.774 121.464C151.28 123.103 150.226 123.946 150.226 123.946C149.894 124.211 149.583 124.37 149.395 124.458C130.487 130.239 111.578 136.018 92.6703 141.8C89.2113 128.004 85.7543 114.207 82.2943 100.411H82.2913Z" fill="url(#paint19_linear_396_3120)"></path><path d="M61.9913 102.721C68.1943 101.413 74.3963 100.103 80.5993 98.7956C81.2043 98.7186 82.1353 98.6716 83.2133 98.9156C83.2133 98.9156 84.5703 99.2246 85.8623 100.091C92.7413 104.718 96.5653 113.941 96.5653 113.941C96.5653 113.941 101.331 125.428 98.2363 138.293C97.9273 139.58 97.2083 140.473 97.2083 140.473C96.5683 141.269 95.8043 141.71 95.2813 141.951C87.8483 144.322 80.4173 146.693 72.9843 149.066C69.3183 133.619 65.6533 118.171 61.9883 102.724L61.9913 102.721Z" fill="url(#paint20_linear_396_3120)"></path><path d="M72.9845 149.063C76.4795 147.944 79.9745 146.822 83.4695 145.702C83.8185 145.217 84.3184 144.483 84.8404 143.549C87.7514 138.34 87.8104 133.281 87.8104 130.687C87.8104 128.421 87.5604 111.211 75.2134 103.346C73.2304 102.083 71.4215 101.369 70.2555 100.975C67.5005 101.557 64.7465 102.139 61.9915 102.72C65.6565 118.168 69.3214 133.616 72.9874 149.063H72.9845Z" fill="url(#paint21_linear_396_3120)"></path><path d="M72.5243 149.475C80.3903 147.621 84.3023 135.659 81.2633 122.758C78.2243 109.856 69.3843 100.901 61.5183 102.755C53.6523 104.609 49.7403 116.571 52.7793 129.472C55.8183 142.373 64.6593 151.329 72.5243 149.475Z" fill="url(#paint22_linear_396_3120)"></path><path d="M75.0603 146.389C68.4023 147.72 61.1333 139.421 58.8253 127.857C56.5163 116.291 60.0443 105.837 66.7023 104.509C67.8033 104.289 68.9193 104.339 70.0263 104.615C67.2713 102.823 64.3323 102.094 61.5153 102.758C53.6503 104.612 49.7383 116.573 52.7753 129.473C55.8143 142.373 64.6523 151.328 72.5203 149.474C75.4073 148.793 77.7593 146.748 79.4333 143.795C78.2003 145.15 76.7283 146.058 75.0603 146.389Z" fill="url(#paint23_linear_396_3120)"></path><mask id="mask2_396_3120" maskUnits="userSpaceOnUse" x="82" y="89" width="71" height="53" style="mask-type: luminance;"><path d="M82.2913 100.413C100.644 96.7726 118.997 93.1356 137.35 89.4946C137.958 89.3716 138.889 89.2716 139.935 89.5566C139.935 89.5566 140.801 89.7946 141.606 90.3526C147.409 94.3776 150.487 102.029 150.487 102.029C150.487 102.029 154.567 112.167 151.774 121.466C151.28 123.105 150.226 123.948 150.226 123.948C149.894 124.213 149.583 124.371 149.395 124.46C130.487 130.241 111.578 136.02 92.6703 141.802C89.2113 128.006 85.7543 114.209 82.2943 100.413H82.2913Z" fill="white"></path></mask><g mask="url(#mask2_396_3120)"><path d="M130.46 89.8486C133.045 91.8996 139.324 97.4436 142.543 107.069C145.941 117.237 143.894 125.889 142.992 129.021" stroke="url(#paint24_linear_396_3120)" stroke-width="0.477554" stroke-miterlimit="10"></path></g><path d="M67.3154 118.201C66.4584 117.88 65.5004 117.575 64.4524 117.322C63.8064 117.166 63.1894 117.046 62.5994 116.952C62.5084 117.337 62.4224 117.73 62.3434 118.133C60.9304 125.437 62.5664 131.453 63.6124 134.433C63.9384 134.538 64.3844 134.647 64.9254 134.67C65.5444 134.7 66.0584 134.612 66.4204 134.521C65.9674 131.424 65.6624 126.879 66.5904 121.529C66.7934 120.36 67.0394 119.252 67.3134 118.203L67.3154 118.201Z" fill="#ECFAF8"></path><path d="M65.1803 114.661C66.2403 114.94 67.2103 115.263 68.0883 115.601C68.7633 113.571 69.5153 111.834 70.2083 110.427C69.8563 110.083 69.0953 109.434 67.9263 109.108C66.9813 108.844 66.1733 108.905 65.7093 108.976C64.9313 110.362 64.0793 112.134 63.3713 114.249C63.9533 114.361 64.5553 114.496 65.1833 114.661H65.1803Z" fill="#ECFAF8"></path><defs><linearGradient id="paint0_linear_396_3120" x1="143.486" y1="147.381" x2="158.969" y2="117.698" gradientUnits="userSpaceOnUse"><stop stop-color="#94EBFF"></stop><stop offset="0.11" stop-color="#99EAFF"></stop><stop offset="0.24" stop-color="#A9E9FF"></stop><stop offset="0.39" stop-color="#C3E8FF"></stop><stop offset="0.56" stop-color="#E7E6FF"></stop><stop offset="0.59" stop-color="#F1E6FF"></stop></linearGradient><linearGradient id="paint1_linear_396_3120" x1="43.6556" y1="73.2105" x2="49.0074" y2="60.39" gradientUnits="userSpaceOnUse"><stop stop-color="#94EBFF"></stop><stop offset="0.13" stop-color="#99EAFF"></stop><stop offset="0.31" stop-color="#A9E9FF"></stop><stop offset="0.5" stop-color="#C3E8FF"></stop><stop offset="0.7" stop-color="#E7E6FF"></stop><stop offset="0.75" stop-color="#F1E6FF"></stop></linearGradient><linearGradient id="paint2_linear_396_3120" x1="9.64448" y1="128.07" x2="16.3211" y2="93.6687" gradientUnits="userSpaceOnUse"><stop stop-color="#94EBFF"></stop><stop offset="0.13" stop-color="#99EAFF"></stop><stop offset="0.31" stop-color="#A9E9FF"></stop><stop offset="0.5" stop-color="#C3E8FF"></stop><stop offset="0.7" stop-color="#E7E6FF"></stop><stop offset="0.75" stop-color="#F1E6FF"></stop></linearGradient><linearGradient id="paint3_linear_396_3120" x1="109.476" y1="64.5312" x2="115.668" y2="97.8482" gradientUnits="userSpaceOnUse"><stop stop-color="#C3D2F7"></stop><stop offset="0.1" stop-color="#C0D0F6"></stop><stop offset="0.17" stop-color="#B7CCF4"></stop><stop offset="0.22" stop-color="#A8C5F1"></stop><stop offset="0.27" stop-color="#93BAEC"></stop><stop offset="0.32" stop-color="#77ADE6"></stop><stop offset="0.36" stop-color="#559DDF"></stop><stop offset="0.4" stop-color="#2E8AD7"></stop><stop offset="0.44" stop-color="#0174CD"></stop><stop offset="0.45" stop-color="#0074CD"></stop><stop offset="0.52" stop-color="#0777CE"></stop><stop offset="0.59" stop-color="#147ED1"></stop><stop offset="0.68" stop-color="#539CDE"></stop><stop offset="0.84" stop-color="#C3D2F7"></stop></linearGradient><linearGradient id="paint4_linear_396_3120" x1="75.4033" y1="63.3679" x2="84.7883" y2="109.402" gradientUnits="userSpaceOnUse"><stop offset="0.1" stop-color="#C3D2F7"></stop><stop offset="0.14" stop-color="#BDCFF5"></stop><stop offset="0.19" stop-color="#ACC7F2"></stop><stop offset="0.25" stop-color="#91BAEC"></stop><stop offset="0.31" stop-color="#6BA7E4"></stop><stop offset="0.37" stop-color="#3A90D9"></stop><stop offset="0.44" stop-color="#0074CD"></stop><stop offset="0.5" stop-color="#0476CE"></stop><stop offset="0.56" stop-color="#127CD0"></stop><stop offset="0.64" stop-color="#2887D5"></stop><stop offset="0.71" stop-color="#4897DC"></stop><stop offset="0.78" stop-color="#71AAE5"></stop><stop offset="0.86" stop-color="#A2C2F0"></stop><stop offset="0.91" stop-color="#C3D2F7"></stop></linearGradient><linearGradient id="paint5_linear_396_3120" x1="41.1815" y1="66.4086" x2="51.2985" y2="120.875" gradientUnits="userSpaceOnUse"><stop offset="0.07" stop-color="#D1ACDB"></stop><stop offset="0.16" stop-color="#B19BDE"></stop><stop offset="0.31" stop-color="#8283E3"></stop><stop offset="0.44" stop-color="#6172E6"></stop><stop offset="0.55" stop-color="#4C67E9"></stop><stop offset="0.62" stop-color="#4564EA"></stop><stop offset="0.66" stop-color="#4966E9"></stop><stop offset="0.72" stop-color="#576DE8"></stop><stop offset="0.77" stop-color="#6D78E5"></stop><stop offset="0.83" stop-color="#8C88E2"></stop><stop offset="0.89" stop-color="#B49DDE"></stop><stop offset="0.92" stop-color="#D1ACDB"></stop></linearGradient><linearGradient id="paint6_linear_396_3120" x1="28.7024" y1="72.3865" x2="51.8044" y2="120.76" gradientUnits="userSpaceOnUse"><stop stop-color="#D1ACDB"></stop><stop offset="0.08" stop-color="#B29CDE"></stop><stop offset="0.2" stop-color="#8B88E2"></stop><stop offset="0.32" stop-color="#6C78E5"></stop><stop offset="0.43" stop-color="#566DE8"></stop><stop offset="0.54" stop-color="#4966E9"></stop><stop offset="0.64" stop-color="#4564EA"></stop><stop offset="0.69" stop-color="#4966E9"></stop><stop offset="0.75" stop-color="#576DE8"></stop><stop offset="0.8" stop-color="#6D78E5"></stop><stop offset="0.86" stop-color="#8C88E2"></stop><stop offset="0.92" stop-color="#B49DDE"></stop><stop offset="0.96" stop-color="#D1ACDB"></stop></linearGradient><linearGradient id="paint7_linear_396_3120" x1="80.3234" y1="86.2313" x2="0.989459" y2="99.0843" gradientUnits="userSpaceOnUse"><stop offset="0.36" stop-color="#ECFAF8"></stop><stop offset="0.43" stop-color="#E5F8F8"></stop><stop offset="0.53" stop-color="#D4F6F9"></stop><stop offset="0.63" stop-color="#B8F1FC"></stop><stop offset="0.73" stop-color="#9AECFF"></stop><stop offset="0.75" stop-color="#94EBFF"></stop></linearGradient><linearGradient id="paint8_linear_396_3120" x1="17.6696" y1="80.4775" x2="45.1045" y2="107.9" gradientUnits="userSpaceOnUse"><stop offset="0.02" stop-color="#3165DB"></stop><stop offset="0.55" stop-color="#9E95DB"></stop><stop offset="0.82" stop-color="#D1ACDB"></stop></linearGradient><linearGradient id="paint9_linear_396_3120" x1="90.1763" y1="83.2002" x2="104.105" y2="84.2912" gradientUnits="userSpaceOnUse"><stop offset="0.05" stop-color="#99BEEE"></stop><stop offset="0.07" stop-color="#91BAEC"></stop><stop offset="0.1" stop-color="#7CB0E7"></stop><stop offset="0.15" stop-color="#5A9FE0"></stop><stop offset="0.2" stop-color="#2C89D6"></stop><stop offset="0.24" stop-color="#0074CD"></stop><stop offset="0.45" stop-color="#4093DA"></stop><stop offset="0.85" stop-color="#C3D2F7"></stop></linearGradient><linearGradient id="paint10_linear_396_3120" x1="98.7093" y1="82.4636" x2="122.584" y2="82.1806" gradientUnits="userSpaceOnUse"><stop stop-color="#4F7DEA"></stop><stop offset="0.11" stop-color="#547EE9"></stop><stop offset="0.25" stop-color="#6484E7"></stop><stop offset="0.41" stop-color="#7E8EE4"></stop><stop offset="0.58" stop-color="#A29BE0"></stop><stop offset="0.76" stop-color="#D1ACDB"></stop></linearGradient><linearGradient id="paint11_linear_396_3120" x1="101.422" y1="85.6886" x2="125.323" y2="85.6886" gradientUnits="userSpaceOnUse"><stop stop-color="#4F7DEA"></stop><stop offset="0.11" stop-color="#547EE9"></stop><stop offset="0.25" stop-color="#6484E7"></stop><stop offset="0.41" stop-color="#7E8EE4"></stop><stop offset="0.58" stop-color="#A29BE0"></stop><stop offset="0.76" stop-color="#D1ACDB"></stop></linearGradient><linearGradient id="paint12_linear_396_3120" x1="104.157" y1="89.9716" x2="128.02" y2="89.1216" gradientUnits="userSpaceOnUse"><stop stop-color="#4F7DEA"></stop><stop offset="0.11" stop-color="#547EE9"></stop><stop offset="0.25" stop-color="#6484E7"></stop><stop offset="0.41" stop-color="#7E8EE4"></stop><stop offset="0.58" stop-color="#A29BE0"></stop><stop offset="0.76" stop-color="#D1ACDB"></stop></linearGradient><linearGradient id="paint13_linear_396_3120" x1="106.735" y1="93.1486" x2="130.654" y2="93.1486" gradientUnits="userSpaceOnUse"><stop stop-color="#4F7DEA"></stop><stop offset="0.11" stop-color="#547EE9"></stop><stop offset="0.25" stop-color="#6484E7"></stop><stop offset="0.41" stop-color="#7E8EE4"></stop><stop offset="0.58" stop-color="#A29BE0"></stop><stop offset="0.76" stop-color="#D1ACDB"></stop></linearGradient><linearGradient id="paint14_linear_396_3120" x1="73.8614" y1="107.339" x2="113.261" y2="84.5977" gradientUnits="userSpaceOnUse"><stop stop-color="#1F91FA"></stop><stop offset="0.09" stop-color="#3B9FF9"></stop><stop offset="0.23" stop-color="#64B4F8"></stop><stop offset="0.38" stop-color="#86C5F8"></stop><stop offset="0.52" stop-color="#A1D2F7"></stop><stop offset="0.68" stop-color="#B4DCF7"></stop><stop offset="0.83" stop-color="#BFE2F7"></stop><stop offset="1" stop-color="#C3E4F7"></stop></linearGradient><linearGradient id="paint15_linear_396_3120" x1="84.0883" y1="100.807" x2="126.691" y2="101.737" gradientUnits="userSpaceOnUse"><stop stop-color="#0074CD"></stop><stop offset="0.11" stop-color="#0B79CF"></stop><stop offset="0.3" stop-color="#2988D5"></stop><stop offset="0.55" stop-color="#5A9FE0"></stop><stop offset="0.85" stop-color="#9DC0EE"></stop><stop offset="1" stop-color="#C3D2F7"></stop></linearGradient><linearGradient id="paint16_linear_396_3120" x1="76.6783" y1="100.495" x2="76.6783" y2="88.4533" gradientUnits="userSpaceOnUse"><stop offset="0.33" stop-color="#0074CD"></stop><stop offset="0.43" stop-color="#0375CD"></stop><stop offset="0.53" stop-color="#0F7BD0"></stop><stop offset="0.62" stop-color="#2284D4"></stop><stop offset="0.71" stop-color="#3D91DA"></stop><stop offset="0.81" stop-color="#5FA2E1"></stop><stop offset="0.9" stop-color="#89B6EA"></stop><stop offset="0.99" stop-color="#BBCEF5"></stop><stop offset="1" stop-color="#C3D2F7"></stop></linearGradient><linearGradient id="paint17_linear_396_3120" x1="72.8813" y1="91.1704" x2="77.9853" y2="100.006" gradientUnits="userSpaceOnUse"><stop stop-color="#C3D2F7"></stop><stop offset="0.23" stop-color="#0074CD"></stop><stop offset="0.39" stop-color="#2A88D6"></stop><stop offset="0.75" stop-color="#93BBEC"></stop><stop offset="0.91" stop-color="#C3D2F7"></stop></linearGradient><linearGradient id="paint18_linear_396_3120" x1="149.774" y1="88.6196" x2="159.367" y2="124.405" gradientUnits="userSpaceOnUse"><stop stop-color="#C3D2F7"></stop><stop offset="0.06" stop-color="#BFD0F6"></stop><stop offset="0.13" stop-color="#B3CAF3"></stop><stop offset="0.19" stop-color="#9FC0EF"></stop><stop offset="0.25" stop-color="#83B3E9"></stop><stop offset="0.31" stop-color="#5FA1E1"></stop><stop offset="0.37" stop-color="#338CD8"></stop><stop offset="0.43" stop-color="#0074CD"></stop><stop offset="0.55" stop-color="#147ED1"></stop><stop offset="0.63" stop-color="#4495DB"></stop><stop offset="0.78" stop-color="#9FC0EF"></stop><stop offset="0.84" stop-color="#C3D2F7"></stop></linearGradient><linearGradient id="paint19_linear_396_3120" x1="113.572" y1="91.7357" x2="125.004" y2="134.382" gradientUnits="userSpaceOnUse"><stop offset="0.12" stop-color="#C3D2F7"></stop><stop offset="0.21" stop-color="#8AB1E7"></stop><stop offset="0.34" stop-color="#4086D2"></stop><stop offset="0.43" stop-color="#116BC5"></stop><stop offset="0.48" stop-color="#0061C1"></stop><stop offset="0.63" stop-color="#0564C2"></stop><stop offset="0.67" stop-color="#176EC7"></stop><stop offset="0.77" stop-color="#488BD4"></stop><stop offset="0.9" stop-color="#96B8EA"></stop><stop offset="0.96" stop-color="#C3D2F7"></stop></linearGradient><linearGradient id="paint20_linear_396_3120" x1="75.1253" y1="95.1106" x2="90.8033" y2="153.609" gradientUnits="userSpaceOnUse"><stop offset="0.07" stop-color="#D1ACDB"></stop><stop offset="0.13" stop-color="#B19BD8"></stop><stop offset="0.26" stop-color="#767BD5"></stop><stop offset="0.38" stop-color="#4762D2"></stop><stop offset="0.48" stop-color="#2550CF"></stop><stop offset="0.56" stop-color="#1045CE"></stop><stop offset="0.62" stop-color="#0941CE"></stop><stop offset="0.66" stop-color="#0D43CE"></stop><stop offset="0.7" stop-color="#1B4ACF"></stop><stop offset="0.74" stop-color="#3156D0"></stop><stop offset="0.79" stop-color="#5067D2"></stop><stop offset="0.84" stop-color="#797DD5"></stop><stop offset="0.89" stop-color="#A997D8"></stop><stop offset="0.92" stop-color="#D1ACDB"></stop></linearGradient><linearGradient id="paint21_linear_396_3120" x1="62.0355" y1="102.694" x2="91.3455" y2="153.444" gradientUnits="userSpaceOnUse"><stop offset="0.06" stop-color="#D1ACDB"></stop><stop offset="0.16" stop-color="#9A8ED7"></stop><stop offset="0.27" stop-color="#6773D4"></stop><stop offset="0.36" stop-color="#3E5DD1"></stop><stop offset="0.45" stop-color="#214DCF"></stop><stop offset="0.53" stop-color="#0F44CE"></stop><stop offset="0.58" stop-color="#0941CE"></stop><stop offset="0.63" stop-color="#0D43CE"></stop><stop offset="0.68" stop-color="#1B4ACF"></stop><stop offset="0.73" stop-color="#3156D0"></stop><stop offset="0.78" stop-color="#5067D2"></stop><stop offset="0.83" stop-color="#797DD5"></stop><stop offset="0.88" stop-color="#A997D8"></stop><stop offset="0.92" stop-color="#D1ACDB"></stop></linearGradient><linearGradient id="paint22_linear_396_3120" x1="119.599" y1="113.429" x2="34.2297" y2="134.211" gradientUnits="userSpaceOnUse"><stop offset="0.36" stop-color="#ECFAF8"></stop><stop offset="0.43" stop-color="#E5F8F8"></stop><stop offset="0.53" stop-color="#D4F6F9"></stop><stop offset="0.63" stop-color="#B8F1FC"></stop><stop offset="0.73" stop-color="#9AECFF"></stop><stop offset="0.75" stop-color="#94EBFF"></stop></linearGradient><linearGradient id="paint23_linear_396_3120" x1="51.4563" y1="110.826" x2="82.3103" y2="141.673" gradientUnits="userSpaceOnUse"><stop offset="0.01" stop-color="#0941CE"></stop><stop offset="0.1" stop-color="#0E43CE"></stop><stop offset="0.2" stop-color="#1E4CCF"></stop><stop offset="0.32" stop-color="#385AD1"></stop><stop offset="0.45" stop-color="#5C6DD3"></stop><stop offset="0.58" stop-color="#8B86D6"></stop><stop offset="0.72" stop-color="#C3A4DA"></stop><stop offset="0.75" stop-color="#D1ACDB"></stop></linearGradient><linearGradient id="paint24_linear_396_3120" x1="130.005" y1="109.251" x2="145.165" y2="109.251" gradientUnits="userSpaceOnUse"><stop offset="0.05" stop-color="#99BEEE"></stop><stop offset="0.07" stop-color="#91BAEC"></stop><stop offset="0.1" stop-color="#7CB0E7"></stop><stop offset="0.15" stop-color="#5A9FE0"></stop><stop offset="0.2" stop-color="#2C89D6"></stop><stop offset="0.24" stop-color="#0074CD"></stop><stop offset="0.45" stop-color="#4093DA"></stop><stop offset="0.85" stop-color="#C3D2F7"></stop></linearGradient><linearGradient id="paint25_linear_396_3120" x1="66.4514" y1="72.3925" x2="72.7864" y2="36.4019" gradientUnits="userSpaceOnUse"><stop stop-color="#94EBFF"></stop><stop offset="0.13" stop-color="#99EBFE"></stop><stop offset="0.29" stop-color="#A9EEFD"></stop><stop offset="0.47" stop-color="#C3F3FB"></stop><stop offset="0.67" stop-color="#E7F9F8"></stop><stop offset="0.69" stop-color="#ECFAF8"></stop></linearGradient><linearGradient id="paint26_linear_396_3120" x1="87.9094" y1="200.611" x2="93.6884" y2="174.379" gradientUnits="userSpaceOnUse"><stop stop-color="#94EBFF"></stop><stop offset="0.16" stop-color="#99EAFF"></stop><stop offset="0.36" stop-color="#A9E9FF"></stop><stop offset="0.58" stop-color="#C3E8FF"></stop><stop offset="0.81" stop-color="#E7E6FF"></stop><stop offset="0.87" stop-color="#F1E6FF"></stop></linearGradient><linearGradient id="paint27_linear_396_3120" x1="96.9084" y1="178.369" x2="111.615" y2="153.19" gradientUnits="userSpaceOnUse"><stop stop-color="#94EBFF"></stop><stop offset="0.13" stop-color="#99EBFE"></stop><stop offset="0.29" stop-color="#A9EEFD"></stop><stop offset="0.47" stop-color="#C3F3FB"></stop><stop offset="0.67" stop-color="#E7F9F8"></stop><stop offset="0.69" stop-color="#ECFAF8"></stop></linearGradient><linearGradient id="paint28_linear_396_3120" x1="32.4728" y1="38.5272" x2="41.5207" y2="3.04219" gradientUnits="userSpaceOnUse"><stop stop-color="#94EBFF"></stop><stop offset="0.09" stop-color="#99EBFE"></stop><stop offset="0.21" stop-color="#A9EEFD"></stop><stop offset="0.35" stop-color="#C3F3FB"></stop><stop offset="0.49" stop-color="#E7F9F8"></stop><stop offset="0.51" stop-color="#ECFAF8"></stop></linearGradient><linearGradient id="paint29_linear_396_3120" x1="175.353" y1="141.09" x2="183.786" y2="128.29" gradientUnits="userSpaceOnUse"><stop stop-color="#94EBFF"></stop><stop offset="0.13" stop-color="#99EAFF"></stop><stop offset="0.31" stop-color="#A9E9FF"></stop><stop offset="0.5" stop-color="#C3E8FF"></stop><stop offset="0.7" stop-color="#E7E6FF"></stop><stop offset="0.75" stop-color="#F1E6FF"></stop></linearGradient><linearGradient id="paint30_linear_396_3120" x1="160.828" y1="64.4685" x2="163.101" y2="52.4666" gradientUnits="userSpaceOnUse"><stop stop-color="#94EBFF"></stop><stop offset="0.13" stop-color="#99EBFE"></stop><stop offset="0.29" stop-color="#A9EEFD"></stop><stop offset="0.48" stop-color="#C3F3FB"></stop><stop offset="0.67" stop-color="#E7F9F8"></stop><stop offset="0.7" stop-color="#ECFAF8"></stop></linearGradient><linearGradient id="paint31_linear_396_3120" x1="176.6" y1="163.261" x2="176.6" y2="144.582" gradientUnits="userSpaceOnUse"><stop stop-color="#94EBFF"></stop><stop offset="0.13" stop-color="#99EBFE"></stop><stop offset="0.29" stop-color="#A9EEFD"></stop><stop offset="0.47" stop-color="#C3F3FB"></stop><stop offset="0.67" stop-color="#E7F9F8"></stop><stop offset="0.69" stop-color="#ECFAF8"></stop></linearGradient><linearGradient id="paint32_linear_396_3120" x1="172.246" y1="76.7105" x2="171.734" y2="62.0591" gradientUnits="userSpaceOnUse"><stop stop-color="#94EBFF"></stop><stop offset="0.13" stop-color="#99EAFF"></stop><stop offset="0.31" stop-color="#A9E9FF"></stop><stop offset="0.5" stop-color="#C3E8FF"></stop><stop offset="0.7" stop-color="#E7E6FF"></stop><stop offset="0.75" stop-color="#F1E6FF"></stop></linearGradient><linearGradient id="paint33_linear_396_3120" x1="115.431" y1="29.5154" x2="111.467" y2="0.402013" gradientUnits="userSpaceOnUse"><stop stop-color="#94EBFF"></stop><stop offset="0.12" stop-color="#99EBFE"></stop><stop offset="0.26" stop-color="#A9EEFD"></stop><stop offset="0.42" stop-color="#C3F3FB"></stop><stop offset="0.6" stop-color="#E7F9F8"></stop><stop offset="0.62" stop-color="#ECFAF8"></stop></linearGradient><linearGradient id="paint34_linear_396_3120" x1="20.6119" y1="60.4959" x2="21.1666" y2="51.4553" gradientUnits="userSpaceOnUse"><stop stop-color="#94EBFF"></stop><stop offset="0.13" stop-color="#99EAFF"></stop><stop offset="0.31" stop-color="#A9E9FF"></stop><stop offset="0.5" stop-color="#C3E8FF"></stop><stop offset="0.7" stop-color="#E7E6FF"></stop><stop offset="0.75" stop-color="#F1E6FF"></stop></linearGradient><linearGradient id="paint35_linear_396_3120" x1="97.6785" y1="27.5147" x2="103.623" y2="14.5567" gradientUnits="userSpaceOnUse"><stop stop-color="#94EBFF"></stop><stop offset="0.13" stop-color="#99EAFF"></stop><stop offset="0.31" stop-color="#A9E9FF"></stop><stop offset="0.5" stop-color="#C3E8FF"></stop><stop offset="0.7" stop-color="#E7E6FF"></stop><stop offset="0.75" stop-color="#F1E6FF"></stop></linearGradient></defs></svg>