<svg width="24" height="24" viewBox="0 0 24 24" fill="none" xmlns="http://www.w3.org/2000/svg">
<path fill-rule="evenodd" clip-rule="evenodd" d="M12.6723 0.668076C12.5459 0.412074 12.2852 0.25 11.9997 0.25C11.7142 0.25 11.4535 0.412074 11.3272 0.668076L8.26886 6.8649L1.43026 7.85861C1.14774 7.89966 0.913034 8.09754 0.824815 8.36905C0.736597 8.64056 0.810169 8.93861 1.0146 9.13788L5.96306 13.9614L4.79489 20.7724C4.74663 21.0538 4.86229 21.3381 5.09325 21.5059C5.32421 21.6738 5.63041 21.6959 5.8831 21.563L11.9997 18.3473L18.1164 21.563C18.369 21.6959 18.6752 21.6738 18.9062 21.5059C19.1372 21.3381 19.2528 21.0538 19.2046 20.7724L18.0364 13.9614L22.9849 9.13788C23.1893 8.93861 23.2629 8.64056 23.1746 8.36905C23.0864 8.09754 22.8517 7.89966 22.5692 7.85861L15.7306 6.8649L12.6723 0.668076Z" fill="#24292E"/>
</svg>
