<svg width="22" height="22" viewBox="0 0 22 22" fill="none" xmlns="http://www.w3.org/2000/svg">
<g clip-path="url(#clip0_75_34)">
<path d="M21.0671 11.2315C21.0671 10.5543 21.0071 9.91148 20.9043 9.28577H11.2186V13.1515H16.7643C16.5157 14.4201 15.7871 15.4915 14.7071 16.2201V18.7915H18.0157C19.9529 17.0001 21.0671 14.3601 21.0671 11.2315Z" fill="#4285F4"/>
<path d="M11.2186 21.2857C13.9957 21.2857 16.3186 20.36 18.0157 18.7915L14.7071 16.22C13.7814 16.8372 12.6071 17.2143 11.2186 17.2143C8.53572 17.2143 6.26429 15.4057 5.45 12.9629H2.03857V15.6115C3.72715 18.9715 7.19858 21.2857 11.2186 21.2857Z" fill="#34A853"/>
<path d="M5.45 12.9628C5.23572 12.3457 5.12429 11.6857 5.12429 11C5.12429 10.3143 5.24429 9.65426 5.45 9.03712V6.38855H2.03857C1.33572 7.77712 0.932861 9.33712 0.932861 11C0.932861 12.6628 1.33572 14.2228 2.03857 15.6114L5.45 12.9628Z" fill="#FBBC05"/>
<path d="M11.2186 4.78566C12.7357 4.78566 14.09 5.30852 15.1614 6.32852L18.0929 3.39709C16.3186 1.73423 13.9957 0.714233 11.2186 0.714233C7.19858 0.714233 3.72715 3.02852 2.03857 6.38852L5.45 9.03709C6.26429 6.59424 8.53572 4.78566 11.2186 4.78566Z" fill="#EA4335"/>
</g>
<defs>
<clipPath id="clip0_75_34">
<rect width="20.5714" height="20.5714" fill="white" transform="translate(0.714294 0.714233)"/>
</clipPath>
</defs>
</svg>
