<svg width="17" height="16" viewBox="0 0 17 16" fill="none" xmlns="http://www.w3.org/2000/svg">
<path d="M10.5 8L11.3103 10.1897L13.5 11L11.3103 11.8103L10.5 14L9.68973 11.8103L7.5 11L9.68973 10.1897L10.5 8Z" fill="black"/>
<path d="M13.5 3L14.0402 4.45982L15.5 5L14.0402 5.54018L13.5 7L12.9598 5.54018L11.5 5L12.9598 4.45982L13.5 3Z" fill="black"/>
<path d="M4 1L4.67523 2.82477L6.5 3.5L4.67523 4.17523L4 6L3.32477 4.17523L1.5 3.5L3.32477 2.82477L4 1Z" fill="black"/>
<path d="M3.64282 13.2583L10.1428 2L3.64282 13.2583Z" fill="black"/>
<path d="M3.64282 13.2583L10.1428 2" stroke="#64748B" stroke-width="1.3" stroke-linecap="square"/>
</svg>
