<svg width="118" height="138" viewBox="0 0 118 138" fill="none" xmlns="http://www.w3.org/2000/svg">
<path d="M30.1626 116.364V128H28.549L22.6342 119.466H22.5263V128H20.7706V116.364H22.3956L28.3161 124.909H28.424V116.364H30.1626ZM36.2635 128.176C35.4453 128.176 34.7313 127.989 34.1214 127.614C33.5116 127.239 33.0381 126.714 32.701 126.04C32.3639 125.366 32.1953 124.578 32.1953 123.676C32.1953 122.771 32.3639 121.979 32.701 121.301C33.0381 120.623 33.5116 120.097 34.1214 119.722C34.7313 119.347 35.4453 119.159 36.2635 119.159C37.0817 119.159 37.7957 119.347 38.4055 119.722C39.0154 120.097 39.4889 120.623 39.826 121.301C40.1631 121.979 40.3317 122.771 40.3317 123.676C40.3317 124.578 40.1631 125.366 39.826 126.04C39.4889 126.714 39.0154 127.239 38.4055 127.614C37.7957 127.989 37.0817 128.176 36.2635 128.176ZM36.2692 126.75C36.7995 126.75 37.2389 126.61 37.5874 126.33C37.9358 126.049 38.1934 125.676 38.3601 125.21C38.5305 124.744 38.6158 124.231 38.6158 123.67C38.6158 123.114 38.5305 122.602 38.3601 122.136C38.1934 121.667 37.9358 121.29 37.5874 121.006C37.2389 120.722 36.7995 120.58 36.2692 120.58C35.7351 120.58 35.2919 120.722 34.9396 121.006C34.5911 121.29 34.3317 121.667 34.1612 122.136C33.9946 122.602 33.9112 123.114 33.9112 123.67C33.9112 124.231 33.9946 124.744 34.1612 125.21C34.3317 125.676 34.5911 126.049 34.9396 126.33C35.2919 126.61 35.7351 126.75 36.2692 126.75ZM49.7294 128.17C49.0249 128.17 48.3961 127.991 47.843 127.631C47.2938 127.267 46.862 126.75 46.5476 126.08C46.237 125.405 46.0817 124.597 46.0817 123.653C46.0817 122.71 46.2389 121.903 46.5533 121.233C46.8714 120.562 47.3071 120.049 47.8601 119.693C48.4131 119.337 49.04 119.159 49.7408 119.159C50.2824 119.159 50.718 119.25 51.0476 119.432C51.3809 119.61 51.6385 119.818 51.8203 120.057C52.0059 120.295 52.1499 120.506 52.2521 120.688H52.3544V116.364H54.0533V128H52.3942V126.642H52.2521C52.1499 126.828 52.0021 127.04 51.8089 127.278C51.6196 127.517 51.3582 127.725 51.0249 127.903C50.6915 128.081 50.2597 128.17 49.7294 128.17ZM50.1044 126.722C50.593 126.722 51.0059 126.593 51.343 126.335C51.6839 126.074 51.9415 125.712 52.1158 125.25C52.2938 124.788 52.3828 124.25 52.3828 123.636C52.3828 123.03 52.2957 122.5 52.1214 122.045C51.9472 121.591 51.6915 121.237 51.3544 120.983C51.0173 120.729 50.6006 120.602 50.1044 120.602C49.593 120.602 49.1669 120.735 48.826 121C48.4851 121.265 48.2275 121.627 48.0533 122.085C47.8828 122.544 47.7976 123.061 47.7976 123.636C47.7976 124.22 47.8847 124.744 48.0589 125.21C48.2332 125.676 48.4908 126.045 48.8317 126.318C49.1764 126.587 49.6006 126.722 50.1044 126.722ZM59.0178 128.193C58.4647 128.193 57.9647 128.091 57.5178 127.886C57.0708 127.678 56.7166 127.377 56.4553 126.983C56.1977 126.589 56.0689 126.106 56.0689 125.534C56.0689 125.042 56.1636 124.636 56.353 124.318C56.5424 124 56.7981 123.748 57.12 123.562C57.442 123.377 57.8018 123.237 58.1996 123.142C58.5973 123.047 59.0026 122.975 59.4155 122.926C59.9382 122.866 60.3625 122.816 60.6882 122.778C61.014 122.737 61.2507 122.67 61.3984 122.58C61.5462 122.489 61.62 122.341 61.62 122.136V122.097C61.62 121.6 61.4799 121.216 61.1996 120.943C60.9231 120.67 60.5102 120.534 59.9609 120.534C59.389 120.534 58.9382 120.661 58.6087 120.915C58.2829 121.165 58.0575 121.443 57.9325 121.75L56.3359 121.386C56.5253 120.856 56.8018 120.428 57.1655 120.102C57.5329 119.773 57.9553 119.534 58.4325 119.386C58.9098 119.235 59.4117 119.159 59.9382 119.159C60.2867 119.159 60.656 119.201 61.0462 119.284C61.4401 119.364 61.8075 119.511 62.1484 119.727C62.4931 119.943 62.7753 120.252 62.995 120.653C63.2147 121.051 63.3246 121.568 63.3246 122.205V128H61.6655V126.807H61.5973C61.4875 127.027 61.3227 127.242 61.103 127.455C60.8833 127.667 60.6011 127.843 60.2564 127.983C59.9117 128.123 59.4988 128.193 59.0178 128.193ZM59.3871 126.83C59.8568 126.83 60.2583 126.737 60.5916 126.551C60.9287 126.366 61.1844 126.123 61.3587 125.824C61.5367 125.521 61.6257 125.197 61.6257 124.852V123.727C61.5651 123.788 61.4477 123.845 61.2734 123.898C61.103 123.947 60.9079 123.991 60.6882 124.028C60.4685 124.062 60.2545 124.095 60.0462 124.125C59.8378 124.152 59.6636 124.174 59.5234 124.193C59.1939 124.235 58.8928 124.305 58.62 124.403C58.3511 124.502 58.1352 124.644 57.9723 124.83C57.8132 125.011 57.7337 125.254 57.7337 125.557C57.7337 125.977 57.889 126.295 58.1996 126.511C58.5102 126.723 58.906 126.83 59.3871 126.83ZM69.6612 119.273V120.636H64.8942V119.273H69.6612ZM66.1726 117.182H67.8714V125.438C67.8714 125.767 67.9207 126.015 68.0192 126.182C68.1177 126.345 68.2446 126.456 68.3999 126.517C68.5589 126.574 68.7313 126.602 68.9169 126.602C69.0533 126.602 69.1726 126.593 69.2749 126.574C69.3771 126.555 69.4567 126.54 69.5135 126.528L69.8203 127.932C69.7218 127.97 69.5817 128.008 69.3999 128.045C69.218 128.087 68.9908 128.11 68.718 128.114C68.2711 128.121 67.8544 128.042 67.468 127.875C67.0817 127.708 66.7692 127.451 66.5305 127.102C66.2919 126.754 66.1726 126.316 66.1726 125.79V117.182ZM74.0803 128.193C73.5272 128.193 73.0272 128.091 72.5803 127.886C72.1333 127.678 71.7791 127.377 71.5178 126.983C71.2602 126.589 71.1314 126.106 71.1314 125.534C71.1314 125.042 71.2261 124.636 71.4155 124.318C71.6049 124 71.8606 123.748 72.1825 123.562C72.5045 123.377 72.8643 123.237 73.2621 123.142C73.6598 123.047 74.0651 122.975 74.478 122.926C75.0007 122.866 75.425 122.816 75.7507 122.778C76.0765 122.737 76.3132 122.67 76.4609 122.58C76.6087 122.489 76.6825 122.341 76.6825 122.136V122.097C76.6825 121.6 76.5424 121.216 76.2621 120.943C75.9856 120.67 75.5727 120.534 75.0234 120.534C74.4515 120.534 74.0007 120.661 73.6712 120.915C73.3454 121.165 73.12 121.443 72.995 121.75L71.3984 121.386C71.5878 120.856 71.8643 120.428 72.228 120.102C72.5954 119.773 73.0178 119.534 73.495 119.386C73.9723 119.235 74.4742 119.159 75.0007 119.159C75.3492 119.159 75.7185 119.201 76.1087 119.284C76.5026 119.364 76.87 119.511 77.2109 119.727C77.5556 119.943 77.8378 120.252 78.0575 120.653C78.2772 121.051 78.3871 121.568 78.3871 122.205V128H76.728V126.807H76.6598C76.55 127.027 76.3852 127.242 76.1655 127.455C75.9458 127.667 75.6636 127.843 75.3189 127.983C74.9742 128.123 74.5613 128.193 74.0803 128.193ZM74.4496 126.83C74.9193 126.83 75.3208 126.737 75.6541 126.551C75.9912 126.366 76.2469 126.123 76.4212 125.824C76.5992 125.521 76.6882 125.197 76.6882 124.852V123.727C76.6276 123.788 76.5102 123.845 76.3359 123.898C76.1655 123.947 75.9704 123.991 75.7507 124.028C75.531 124.062 75.317 124.095 75.1087 124.125C74.9003 124.152 74.7261 124.174 74.5859 124.193C74.2564 124.235 73.9553 124.305 73.6825 124.403C73.4136 124.502 73.1977 124.644 73.0348 124.83C72.8757 125.011 72.7962 125.254 72.7962 125.557C72.7962 125.977 72.9515 126.295 73.2621 126.511C73.5727 126.723 73.9685 126.83 74.4496 126.83Z" fill="#AEAEB2"/>
<path d="M49.7624 111C77.2454 111 99.5248 106.837 99.5248 101.702C99.5248 96.5668 77.2454 92.4038 49.7624 92.4038C22.2794 92.4038 0 96.5668 0 101.702C0 106.837 22.2794 111 49.7624 111Z" fill="#F5F5F7" fill-opacity="0.8"/>
<path fill-rule="evenodd" clip-rule="evenodd" d="M89.5719 74.3856L72.0111 52.7733C71.1685 51.756 69.9369 51.1401 68.6399 51.1401H30.8834C29.5872 51.1401 28.3555 51.756 27.5129 52.7733L9.95291 74.3856V85.6766H89.5726V74.3856H89.5719Z" fill="#AEB8C2"/>
<path fill-rule="evenodd" clip-rule="evenodd" d="M24.8309 23.2456H74.6931C75.4718 23.2456 76.2186 23.5549 76.7692 24.1055C77.3198 24.6561 77.6291 25.4029 77.6291 26.1816V94.6952C77.6291 95.4739 77.3198 96.2207 76.7692 96.7713C76.2186 97.3219 75.4718 97.6312 74.6931 97.6312H24.8309C24.0523 97.6312 23.3055 97.3219 22.7549 96.7713C22.2043 96.2207 21.895 95.4739 21.895 94.6952V26.1816C21.895 25.4029 22.2043 24.6561 22.7549 24.1055C23.3055 23.5549 24.0523 23.2456 24.8309 23.2456Z" fill="#F5F5F7"/>
<path fill-rule="evenodd" clip-rule="evenodd" d="M31.3253 30.5508H68.1988C68.5881 30.5508 68.9615 30.7054 69.2368 30.9807C69.5121 31.256 69.6668 31.6294 69.6668 32.0188V50.337C69.6668 50.7263 69.5121 51.0997 69.2368 51.375C68.9615 51.6503 68.5881 51.805 68.1988 51.805H31.3253C30.9359 51.805 30.5626 51.6503 30.2873 51.375C30.012 51.0997 29.8573 50.7263 29.8573 50.337V32.0188C29.8573 31.6294 30.012 31.256 30.2873 30.9807C30.5626 30.7054 30.9359 30.5508 31.3253 30.5508ZM31.5176 59.7739H68.0065C68.4468 59.7739 68.8691 59.9488 69.1805 60.2602C69.4918 60.5716 69.6668 60.9939 69.6668 61.4342C69.6668 61.8745 69.4918 62.2968 69.1805 62.6082C68.8691 62.9196 68.4468 63.0945 68.0065 63.0945H31.5176C31.0772 63.0945 30.6549 62.9196 30.3436 62.6082C30.0322 62.2968 29.8573 61.8745 29.8573 61.4342C29.8573 60.9939 30.0322 60.5716 30.3436 60.2602C30.6549 59.9488 31.0772 59.7739 31.5176 59.7739ZM31.5176 68.4078H68.0065C68.4469 68.4078 68.8693 68.5828 69.1807 68.8942C69.4922 69.2057 69.6671 69.6281 69.6671 70.0685C69.6671 70.5089 69.4922 70.9313 69.1807 71.2428C68.8693 71.5542 68.4469 71.7291 68.0065 71.7291H31.5176C31.0772 71.7291 30.6548 71.5542 30.3433 71.2428C30.0319 70.9313 29.8569 70.5089 29.8569 70.0685C29.8569 69.6281 30.0319 69.2057 30.3433 68.8942C30.6548 68.5828 31.0772 68.4078 31.5176 68.4078ZM89.4097 100.338C88.8408 102.592 86.8429 104.272 84.4662 104.272H15.0578C12.6812 104.272 10.6832 102.591 10.1151 100.338C10.0068 99.9084 9.95206 99.4671 9.95219 99.0241V74.3862H29.2694C31.4031 74.3862 33.1228 76.183 33.1228 78.3644V78.3938C33.1228 80.5745 34.8624 82.3353 36.9961 82.3353H62.528C64.6617 82.3353 66.4012 80.5583 66.4012 78.3769V78.3681C66.4012 76.1867 68.121 74.3855 70.2547 74.3855H89.5719V99.0248C89.5719 99.4777 89.5154 99.9173 89.4097 100.338Z" fill="#DCE0E6"/>
<path fill-rule="evenodd" clip-rule="evenodd" d="M91.8377 24.436L86.8245 26.3811C86.6958 26.4312 86.5554 26.4439 86.4198 26.4178C86.2841 26.3917 86.1585 26.3278 86.0575 26.2334C85.9565 26.1391 85.8842 26.0182 85.8489 25.8846C85.8136 25.751 85.8167 25.6102 85.8579 25.4783L87.2796 20.9224C85.3793 18.7615 84.2636 16.1265 84.2636 13.283C84.2636 5.9468 91.6902 0 100.852 0C110.011 0 117.439 5.9468 117.439 13.283C117.439 20.6193 110.012 26.5661 100.851 26.5661C97.5276 26.5661 94.4331 25.7836 91.8377 24.436Z" fill="#DCE0E6"/>
<path d="M107.386 15.6817C108.541 15.6817 109.477 14.7566 109.477 13.6155C109.477 12.4744 108.541 11.5493 107.386 11.5493C106.231 11.5493 105.295 12.4744 105.295 13.6155C105.295 14.7566 106.231 15.6817 107.386 15.6817Z" fill="white"/>
<path fill-rule="evenodd" clip-rule="evenodd" d="M96.4082 15.4233H92.226L94.3531 11.8076L96.4082 15.4233ZM99.022 11.8076H102.681V15.4233H99.022V11.8076Z" fill="white"/>
</svg>
