<svg width="24" height="24" viewBox="0 0 24 24" fill="none" xmlns="http://www.w3.org/2000/svg">
<path fill-rule="evenodd" clip-rule="evenodd" d="M12.6723 0.668076C12.5459 0.412074 12.2852 0.25 11.9997 0.25C11.7142 0.25 11.4535 0.412074 11.3272 0.668076L8.26886 6.8649L1.43026 7.85861C1.14774 7.89966 0.913034 8.09754 0.824815 8.36905C0.736597 8.64056 0.810169 8.93861 1.0146 9.13788L5.96306 13.9614L4.79489 20.7724C4.74663 21.0538 4.86229 21.3381 5.09325 21.5059C5.32421 21.6738 5.63041 21.6959 5.8831 21.563L11.9997 18.3473L18.1164 21.563C18.369 21.6959 18.6752 21.6738 18.9062 21.5059C19.1372 21.3381 19.2528 21.0538 19.2046 20.7724L18.0364 13.9614L22.9849 9.13788C23.1893 8.93861 23.2629 8.64056 23.1746 8.36905C23.0864 8.09754 22.8517 7.89966 22.5692 7.85861L15.7306 6.8649L12.6723 0.668076Z" fill="#EAFF00"/>
<path d="M12.6723 0.668076L12.8516 0.579563L12.8516 0.579562L12.6723 0.668076ZM11.3272 0.668076L11.1478 0.579562L11.1478 0.579563L11.3272 0.668076ZM8.26886 6.8649L8.29762 7.06282C8.36276 7.05336 8.41908 7.01244 8.44821 6.95341L8.26886 6.8649ZM1.43026 7.85861L1.4015 7.66069L1.4015 7.66069L1.43026 7.85861ZM0.824815 8.36905L1.01503 8.43085L1.01503 8.43085L0.824815 8.36905ZM1.0146 9.13788L1.1542 8.99466L1.1542 8.99466L1.0146 9.13788ZM5.96306 13.9614L6.16018 13.9952C6.17131 13.9304 6.1498 13.8642 6.10266 13.8182L5.96306 13.9614ZM4.79489 20.7724L4.99201 20.8062L4.99201 20.8062L4.79489 20.7724ZM5.09325 21.5059L5.21081 21.3441L5.21081 21.3441L5.09325 21.5059ZM5.8831 21.563L5.79003 21.386L5.79003 21.386L5.8831 21.563ZM11.9997 18.3473L12.0928 18.1703C12.0345 18.1397 11.9649 18.1397 11.9067 18.1703L11.9997 18.3473ZM18.1164 21.563L18.2094 21.386L18.2094 21.386L18.1164 21.563ZM18.9062 21.5059L18.7886 21.3441L18.7886 21.3441L18.9062 21.5059ZM19.2046 20.7724L19.0075 20.8062L19.0075 20.8062L19.2046 20.7724ZM18.0364 13.9614L17.8968 13.8182C17.8497 13.8642 17.8282 13.9304 17.8393 13.9952L18.0364 13.9614ZM22.9849 9.13788L22.8453 8.99466L22.8453 8.99466L22.9849 9.13788ZM22.5692 7.85861L22.598 7.66069L22.598 7.66069L22.5692 7.85861ZM15.7306 6.8649L15.5513 6.95341C15.5804 7.01244 15.6367 7.05336 15.7018 7.06282L15.7306 6.8649ZM11.9997 0.45C12.2091 0.45 12.4003 0.568854 12.4929 0.756589L12.8516 0.579562C12.6916 0.255294 12.3613 0.05 11.9997 0.05V0.45ZM11.5065 0.756589C11.5992 0.568854 11.7904 0.45 11.9997 0.45V0.05C11.6381 0.05 11.3079 0.255294 11.1478 0.579562L11.5065 0.756589ZM8.44821 6.95341L11.5065 0.756589L11.1478 0.579563L8.08951 6.77639L8.44821 6.95341ZM1.45902 8.05653L8.29762 7.06282L8.2401 6.66698L1.4015 7.66069L1.45902 8.05653ZM1.01503 8.43085C1.07972 8.23175 1.25184 8.08663 1.45902 8.05653L1.4015 7.66069C1.04365 7.71269 0.746348 7.96333 0.634604 8.30725L1.01503 8.43085ZM1.1542 8.99466C1.00429 8.84853 0.950333 8.62996 1.01503 8.43085L0.634604 8.30725C0.52286 8.65116 0.616052 9.02869 0.874997 9.28109L1.1542 8.99466ZM6.10266 13.8182L1.1542 8.99466L0.874997 9.28109L5.82346 14.1047L6.10266 13.8182ZM4.99201 20.8062L6.16018 13.9952L5.76594 13.9276L4.59776 20.7386L4.99201 20.8062ZM5.21081 21.3441C5.04144 21.2211 4.95662 21.0126 4.99201 20.8062L4.59776 20.7386C4.53664 21.095 4.68315 21.4552 4.9757 21.6678L5.21081 21.3441ZM5.79003 21.386C5.60472 21.4834 5.38018 21.4672 5.21081 21.3441L4.9757 21.6678C5.26824 21.8803 5.65609 21.9083 5.97617 21.7401L5.79003 21.386ZM11.9067 18.1703L5.79003 21.386L5.97617 21.7401L12.0928 18.5244L11.9067 18.1703ZM18.2094 21.386L12.0928 18.1703L11.9067 18.5244L18.0233 21.7401L18.2094 21.386ZM18.7886 21.3441C18.6193 21.4672 18.3947 21.4834 18.2094 21.386L18.0233 21.7401C18.3434 21.9083 18.7312 21.8803 19.0238 21.6678L18.7886 21.3441ZM19.0075 20.8062C19.0428 21.0126 18.958 21.2211 18.7886 21.3441L19.0238 21.6678C19.3163 21.4552 19.4628 21.095 19.4017 20.7386L19.0075 20.8062ZM17.8393 13.9952L19.0075 20.8062L19.4017 20.7386L18.2335 13.9276L17.8393 13.9952ZM22.8453 8.99466L17.8968 13.8182L18.176 14.1046L23.1245 9.28109L22.8453 8.99466ZM22.9844 8.43085C23.0491 8.62996 22.9952 8.84853 22.8453 8.99466L23.1245 9.28109C23.3834 9.02869 23.4766 8.65116 23.3649 8.30725L22.9844 8.43085ZM22.5404 8.05653C22.7476 8.08663 22.9197 8.23175 22.9844 8.43085L23.3649 8.30725C23.2531 7.96333 22.9558 7.71269 22.598 7.66069L22.5404 8.05653ZM15.7018 7.06282L22.5404 8.05653L22.598 7.66069L15.7594 6.66698L15.7018 7.06282ZM12.4929 0.756589L15.5513 6.95341L15.9099 6.77639L12.8516 0.579563L12.4929 0.756589Z" fill="black" fill-opacity="0.6"/>
</svg>
